<svg xmlns="http://www.w3.org/2000/svg" viewBox="0 0 916 966"><defs><style>.a,.b{fill:none;}.a{stroke:#000;stroke-miterlimit:10;stroke-width:16px;}.c{fill:#fff;}</style></defs><ellipse class="a" cx="458" cy="483" rx="450" ry="475"/><rect x="815.5" y="534.5" width="55" height="24" transform="translate(471.75 -419.66) rotate(37.91)"/><rect x="674" y="535" width="55" height="24" transform="translate(1534.89 371.86) rotate(131.81)"/><rect x="787" y="557" width="55" height="24" transform="translate(943.97 -426.66) rotate(65)"/><rect x="747.5" y="567.5" width="55" height="24" transform="translate(153.5 1337.5) rotate(-90)"/><rect x="706.56" y="556.48" width="55" height="24" transform="translate(1517.5 126.45) rotate(115)"/><rect class="b" x="70" y="337" width="776" height="323"/><rect x="240.9" y="558.57" width="54.92" height="23.97" transform="translate(630.04 69.21) rotate(65)"/><rect x="197.5" y="564.5" width="55" height="24" transform="translate(-393.5 784.5) rotate(-90)"/><rect x="152.56" y="554.05" width="54.92" height="23.97" transform="translate(695.21 754.82) rotate(127.91)"/><path class="c" d="M353.5,386.85" transform="translate(-42 -17)"/><path d="M320.41,521.6V518H286a59.85,59.85,0,0,1-6.78,9.4,54.13,54.13,0,0,1-18.8,13.6,62.12,62.12,0,0,1-25.61,5,70.13,70.13,0,0,1-15.8-1.8,43.49,43.49,0,0,1-14.2-6,31.15,31.15,0,0,1-10.2-11,29.23,29.23,0,0,1-3.16-9.2H163.12A48.61,48.61,0,0,0,169,537.9a55.75,55.75,0,0,0,15.6,17.66,61.89,61.89,0,0,0,20.81,9.83,87,87,0,0,0,22.19,3q22.8,0,39-8.2t29-27h.81a154.7,154.7,0,0,0,.8,15.6q.8,8,2,14.8H323.6a157.82,157.82,0,0,1-2.39-19.6Q320.4,532.41,320.41,521.6ZM491.2,596.4a121,121,0,0,1-1,16.2,36.93,36.93,0,0,1-3.8,12.6,20.61,20.61,0,0,1-8,8.2q-5.2,3-13.6,3a66.72,66.72,0,0,1-8.6-.6,54.64,54.64,0,0,1-8.6-1.8l-4,22.8a58,58,0,0,0,11.2,2.2q6,.6,10.4.6,16,0,26.2-5a43.26,43.26,0,0,0,16.2-13.2,50.29,50.29,0,0,0,8.4-18.8,98.48,98.48,0,0,0,2.4-21.8V518H491.2ZM199.6,489.2q8.81-8,22.61-12.2A147.8,147.8,0,0,1,253,471.4q17-1.39,33.8-1.4h8v14a72.85,72.85,0,0,1-.44,8h26.05V439.6q0-17.19-5.61-30a57.1,57.1,0,0,0-15.59-21.2A67.5,67.5,0,0,0,276,375.8a93.09,93.09,0,0,0-28.4-4.2q-24,0-43,7.6T174,398.4l15.21,18a74.59,74.59,0,0,1,24.39-16,80.34,80.34,0,0,1,31.2-6q24.4,0,37.2,11.91t12.8,36.13v6q-25.59,0-49.39,1.81t-42.2,8q-18.4,6.22-29.41,18.86a41.88,41.88,0,0,0-8.25,14.9h31.39A26.93,26.93,0,0,1,199.6,489.2ZM706,470a86.7,86.7,0,0,1,5-29.8,70.21,70.21,0,0,1,14.4-24,67,67,0,0,1,22.6-16,72.92,72.92,0,0,1,29.6-5.8,58.64,58.64,0,0,1,28.2,7q13,7,19.8,17.8L846.8,404a74.9,74.9,0,0,0-31.4-24.2q-19.41-8.19-38.2-8.2-22.8,0-41.2,7.4a91.22,91.22,0,0,0-31.4,20.6,93.25,93.25,0,0,0-20.2,31.2,104.61,104.61,0,0,0-7.2,39.2,112.22,112.22,0,0,0,2.13,22h29.33A88.35,88.35,0,0,1,706,470ZM491.2,492h27.2V376.4H491.2ZM828,520.8a62.31,62.31,0,0,1-20.4,17.6q-12.4,6.81-30.4,6.8a72.76,72.76,0,0,1-29.6-5.8,64.77,64.77,0,0,1-22.4-16c-1.56-1.73-3-3.53-4.4-5.4H688.42A89.92,89.92,0,0,0,736,561q18.39,7.39,41.2,7.4,24.39,0,41.8-8.8A89.06,89.06,0,0,0,848.4,536Z" transform="translate(-42 -17)"/><polygon points="124.51 501 91.78 505.09 94.75 528.87 149.25 522.06 146.62 501 124.51 501"/></svg>